HIERARCHY
ROOT Hips
{
  OFFSET 3.13124 94.3669 -3.18751
  CHANNELS  6 Xposition Yposition Zposition Zrotation Xrotation Yrotation
  JOINT LeftUpLeg
  {
    OFFSET 8.64259 1.95398 -2.38835
    CHANNELS 3 Zrotation Xrotation Yrotation
    JOINT LeftLeg
    {
      OFFSET 43.7702 0 0
      CHANNELS 3 Zrotation Xrotation Yrotation
      JOINT LeftFoot
      {
        OFFSET 40.6238 0 0
        CHANNELS 3 Zrotation Xrotation Yrotation
        JOINT LeftToeBase
        {
          OFFSET 12.7242 0 0
          CHANNELS 3 Zrotation Xrotation Yrotation
          End Site
          {
            OFFSET 0 0 0
          }
        }
      }
    }
  }
  JOINT RightUpLeg
  {
    OFFSET -8.2249 1.95398 -2.59336
    CHANNELS 3 Zrotation Xrotation Yrotation
    JOINT RightLeg
    {
      OFFSET 43.5653 0 0
      CHANNELS 3 Zrotation Xrotation Yrotation
      JOINT RightFoot
      {
        OFFSET 40.6238 0 0
        CHANNELS 3 Zrotation Xrotation Yrotation
        JOINT RightToeBase
        {
          OFFSET 12.7242 0 0
          CHANNELS 3 Zrotation Xrotation Yrotation
          End Site
          {
            OFFSET 0 0 0
          }
        }
      }
    }
  }
  JOINT Spine
  {
    OFFSET 0.165834 0.87714 6.61349
    CHANNELS 3 Zrotation Xrotation Yrotation
    JOINT Spine1
    {
      OFFSET 7.38962 1.71661e-005 0
      CHANNELS 3 Zrotation Xrotation Yrotation
      JOINT Spine2
      {
        OFFSET 11.9445 1.14441e-005 0
        CHANNELS 3 Zrotation Xrotation Yrotation
        JOINT Spine3
        {
          OFFSET 14.7254 4.19617e-005 0
          CHANNELS 3 Zrotation Xrotation Yrotation
          JOINT Spine4
          {
            OFFSET 10.9679 0 0
            CHANNELS 3 Zrotation Xrotation Yrotation
            JOINT RightShoulder
            {
              OFFSET 2.46616 -1.6653 3.69651
              CHANNELS 3 Zrotation Xrotation Yrotation
              JOINT RightArm
              {
                OFFSET 13.0012 0 0
                CHANNELS 3 Zrotation Xrotation Yrotation
                JOINT RightForeArm
                {
                  OFFSET 28.7848 1.52588e-005 0
                  CHANNELS 3 Zrotation Xrotation Yrotation
                  JOINT RightHand
                  {
                    OFFSET 26.5688 1.52588e-005 0
                    CHANNELS 3 Zrotation Xrotation Yrotation
                    End Site
                    {
                      OFFSET 0 0 0
                    }
                  }
                }
              }
            }
            JOINT LeftShoulder
            {
              OFFSET 2.38034 -1.29275 -3.75231
              CHANNELS 3 Zrotation Xrotation Yrotation
              JOINT LeftArm
              {
                OFFSET 16.3182 6.10352e-005 0
                CHANNELS 3 Zrotation Xrotation Yrotation
                JOINT LeftForeArm
                {
                  OFFSET 27.0901 0 0
                  CHANNELS 3 Zrotation Xrotation Yrotation
                  JOINT LeftHand
                  {
                    OFFSET 24.5451 1.52588e-005 0
                    CHANNELS 3 Zrotation Xrotation Yrotation
                    End Site
                    {
                      OFFSET 0 0 0
                    }
                  }
                }
              }
            }
            JOINT Neck
            {
              OFFSET 5.0226 -0.0266342 0
              CHANNELS 3 Zrotation Xrotation Yrotation
              JOINT Head
              {
                OFFSET 6.69363 2.86102e-005 0
                CHANNELS 3 Zrotation Xrotation Yrotation
                End Site
                {
                  OFFSET 0 0 0
                }
              }
            }
          }
        }
      }
    }
  }
}
MOTION
Frames:	10
Frame Time:	0.0333333
34.8597 99.076 12.5046 -82.3753 0.296504 -102.668 -170.798 8.89201 100.092 -13.1809 -4.86511 1.20119 28.7202 -3.92937 -5.44939 28.7808 3.81713e-006 1.13712e-005 173.61 3.26043 77.6198 -15.1118 7.25525 0.409457 35.4697 1.93281 2.84174 28.7808 1.37703e-005 1.95743e-005 -0.127933 6.06184 -90.5444 14.7584 -0.0461036 1.90829 3.08607 0.0378701 1.90849 -19.4387 -0.617438 1.80591 0.573937 -0.617462 1.80588 99.8805 -18.9873 -87.8141 8.11493 23.5679 8.89725 -18.386 -27.939 -32.4763 30.5468 12.2906 37.1988 -100.928 -61.4094 66.6119 6.86706 -33.6626 -8.61762 5.47587 5.26899 -32.2201 -14.0859 -0.736959 1.86823 7.26139 22.2504 29.2726 -5.37783 16.2302 -5.46734 
33.8738 100.189 13.5985 -82.8377 -6.96489 -100.884 -173.111 14.7665 95.4978 -8.13338 7.84574 1.71334 30.0287 -18.5948 -20.6806 28.7808 3.81713e-006 1.13712e-005 173.95 3.29416 78.4043 -15.5875 4.98448 0.298132 24.6832 3.48227 5.5072 28.7808 1.37703e-005 1.95743e-005 0.244792 6.1756 -90.9141 14.5103 0.0423837 1.87306 2.83803 0.12468 1.86906 -19.6869 -0.522041 1.80145 0.325794 -0.52205 1.80143 99.3821 -27.2867 -88.0228 8.0626 23.341 17.1067 -15.3478 -19.3626 -35.4254 27.4799 10.0648 33.9771 -109.758 -63.4151 56.1446 -1.89558 -30.7503 -13.0289 4.49595 2.49378 -39.8599 -15.7709 -2.17021 13.7393 7.72356 18.9042 27.166 -5.18009 13.1703 -4.86529 
32.9851 100.5 14.278 -82.0601 -12.9831 -98.4255 -175.271 22.1044 92.372 -7.73481 5.99657 1.48513 30.6898 -22.9088 -24.8639 28.7808 3.81713e-006 1.13712e-005 174.764 3.26039 80.1641 -15.693 6.29563 0.389853 25.2364 1.13322 2.74278 28.7808 1.37703e-005 1.95743e-005 0.650386 6.25576 -91.1503 14.3258 0.186829 1.67629 2.65376 0.260385 1.66645 -19.8729 -0.325548 1.65496 0.139748 -0.325531 1.65495 98.9974 -36.5108 -87.8441 8.01251 23.3934 17.8415 -13.5139 -16.2425 -35.4857 29.211 9.79071 30.6638 -119.388 -64.131 44.7378 -8.78204 -26.15 -14.7229 -2.33686 -5.53576 -44.3926 -9.25052 -1.572 19.662 11.6779 16.675 25.2014 -6.47276 10.5198 -5.94905 
31.9496 99.8001 14.5345 -80.1981 -16.2646 -95.0097 -176.391 28.5602 91.3063 -7.81831 -0.286849 0.656439 29.1037 -22.2572 -24.8712 28.7808 3.81713e-006 1.13712e-005 175.96 5.52411 82.5686 -18.8268 15.7508 1.02398 32.0635 -0.901733 0.129729 28.7808 1.37703e-005 1.95743e-005 1.11209 6.34116 -91.5927 14.1193 0.307036 1.49389 2.44754 0.372466 1.47893 -20.0807 -0.156095 1.51711 -0.0681049 -0.156108 1.51709 96.4648 -44.3893 -91.5247 9.36784 23.2139 15.6082 -10.2184 -10.9018 -35.5013 29.5969 8.29339 25.0673 -124.671 -63.2738 38.0481 -13.4303 -21.9159 -12.7078 -4.65091 -7.39947 -47.3298 -8.19982 -1.1058 15.9939 19.3549 15.1542 17.6094 -9.75407 9.44751 -1.28915 
30.9159 98.2933 14.3412 -77.8703 -16.7686 -90.9763 -177.1 34.2598 91.9842 -8.16617 -7.1266 -0.00525445 26.6525 -21.0461 -24.6708 28.7808 3.81713e-006 1.13712e-005 177.396 8.15969 85.8781 -20.5964 17.3562 1.14081 38.7869 -1.03441 -0.130336 28.7808 1.37703e-005 1.95743e-005 1.54807 6.42927 -91.8892 13.9106 0.583003 1.02748 2.23945 0.627654 1.00084 -20.2927 0.247262 1.15518 -0.280074 0.247272 1.15519 91.8746 -48.7877 -98.1906 11.225 22.8319 11.6768 -4.28641 -1.66257 -35.3181 29.9186 6.2515 17.6285 -127.574 -62.9824 34.501 -20.1772 -15.2792 -14.559 -5.33436 -7.89324 -48.107 6.01075 1.3518 15.0849 30.0137 14.0617 9.42632 -16.2206 9.39854 2.52783 
29.9742 95.9454 13.6626 -76.2191 -16.5383 -86.3883 -176.954 38.8664 93.9226 -8.70115 -12.1675 -0.829221 25.5292 -20.309 -24.3522 28.7808 3.81713e-006 1.13712e-005 179.429 8.29444 90.1075 -19.1931 21.6027 1.45666 43.5285 1.7557 2.07558 28.7808 1.37703e-005 1.95743e-005 1.6717 6.55122 -91.7648 13.6711 0.844417 0.381344 2.00029 0.860365 0.343802 -20.536 0.690745 0.617498 -0.523314 0.690746 0.617491 87.1159 -51.0612 -104.927 15.5555 21.0278 3.68511 -1.81952 2.28069 -34.1452 23.8747 4.54041 15.7389 -126.234 -61.7753 35.4119 -26.3923 -8.51051 -14.1158 -3.76072 -5.87792 -50.6523 12.8879 2.49523 14.7556 36.221 11.9237 2.88541 -17.5234 9.37321 4.69821 
28.8928 93.1031 12.8174 -76.1985 -17.0281 -82.2455 -176.762 43.3939 95.2624 -13.3917 -13.305 -1.47433 25.3094 -18.6416 -22.5658 28.7808 3.81713e-006 1.13712e-005 -178.557 7.03912 95.1202 -21.7448 23.4986 1.58781 51.6831 0.141794 0.453573 28.7808 1.37703e-005 1.95743e-005 1.71962 6.82064 -91.9728 13.1264 0.935201 -0.124818 1.45581 0.928741 -0.165854 -21.082 0.929724 0.162048 -1.06934 0.929737 0.162029 82.9431 -51.7449 -110.911 20.101 18.56 -5.15132 -0.0495712 5.07297 -34.6264 17.2645 3.03237 14.1574 -124.688 -59.6397 36.0886 -29.3606 -4.5081 -9.09085 -1.32415 -2.95315 -59.4866 3.00502 0.985495 18.6125 38.0132 9.8327 -1.15115 -14.0302 9.21741 5.83085 
27.8693 88.8671 11.9065 -77.42 -17.9941 -79.591 -176.104 49.718 95.1217 -25.4643 -8.26156 -2.1271 27.0119 -15.9218 -19.0136 28.7808 3.81713e-006 1.13712e-005 -178.316 10.5377 100.074 -35.2388 30.6831 2.36774 68.4906 2.53308 1.19829 28.7808 1.37703e-005 1.95743e-005 1.30994 7.212 -91.3173 12.4022 1.04475 -0.53735 0.73158 1.02098 -0.582851 -21.8068 1.15389 -0.198279 -1.79411 1.15389 -0.198279 78.6838 -50.8369 -117.478 23.8541 15.8488 -11.6236 1.89031 7.00371 -38.7363 12.5241 1.6402 9.29556 -122.376 -57.4522 37.7004 -32.6859 0.339005 -6.39115 17.3233 6.85114 -66.163 -7.15319 -1.20183 24.0489 36.7141 8.47582 -2.39772 -7.29032 8.89622 4.60823 
26.6554 84.9944 11.4944 -78.4668 -20.1887 -77.8981 -176.621 55.9857 93.4223 -39.144 -5.08316 -1.52929 37.5236 -1.76991 -2.64952 28.7808 3.81713e-006 1.13712e-005 -178.693 11.4626 104.357 -42.6958 39.7089 2.76567 78.7566 6.07693 2.13645 28.7808 1.37703e-005 1.95743e-005 0.736888 7.58562 -90.5666 11.6975 0.954251 -0.852239 0.0266066 0.915786 -0.893411 -22.5103 1.16861 -0.526031 -2.49765 1.1686 -0.526044 76.7189 -48.6449 -121.318 27.4852 12.0178 -17.3012 5.09882 8.50958 -47.0107 6.90947 0.56797 3.96948 -120.117 -56.0014 39.7127 -35.1415 2.60519 -3.15897 33.0991 13.4706 -70.0244 -9.65912 -0.875654 7.70781 36.4953 7.56343 -1.81837 -2.8162 7.93061 2.97947 
24.3273 81.945 12.2462 -78.3264 -21.9925 -78.3293 -177.834 59.7949 91.1499 -49.1416 -9.17673 -0.558101 48.3195 3.54045 2.12515 28.7808 3.81713e-006 1.13712e-005 -179.326 11.7433 105.043 -48.1081 44.8729 3.20887 84.6838 9.45076 2.83441 28.7808 1.37703e-005 1.95743e-005 0.590373 7.73528 -89.9879 11.4139 1.16753 -0.724512 -0.25678 1.1345 -0.775103 -22.7956 1.33129 -0.340069 -2.78296 1.33128 -0.340092 76.2792 -46.9182 -122.784 29.6622 7.81534 -22.3746 7.72019 7.90203 -56.7681 1.14003 0.0680418 1.09256 -121.608 -57.5185 38.6781 -35.7477 2.63821 -2.7972 45.6706 19.8518 -72.0877 -4.92845 -0.120877 -5.90162 36.6336 6.58181 0.646125 -1.21795 5.92022 1.24457 
